<svg width="1202" height="1192" fill="none" xmlns="http://www.w3.org/2000/svg"><path d="M467.724 473.454c-11.888 20.617-12.769 46.073-2.138 64.992 9.183 16.343 27.048 26.4 44.346 26.4 4.529 0 8.995-.692 13.273-2.138 17.675-5.908 31.577-22.816 41.39-50.284 3.899-10.874 8.24-25.268 7.485-40.29-.755-15.337-6.982-28.725-17.11-36.77-7.863-6.223-17.487-8.297-28.746-6.097-22.834 4.4-48.184 26.399-58.5 44.187z" stroke="#FFB816" stroke-width="2" stroke-miterlimit="10"/><path d="M428.221 477.414c-4.529 18.291-2.075 39.41 7.046 59.524 8.429 18.731 21.324 34.507 34.03 48.838 7.485 8.36 15.726 16.908 25.853 22.565 12.643 7.103 27.237 9.24 39.754 10.371 4.467.44 9.247.755 14.216.755 5.473 0 11.071-.44 16.607-1.635 10.19-2.262 19.5-7.919 25.475-15.525 7.989-10.057 10.442-21.559 13.084-33.627l.503-2.389c4.152-18.919 11.26-40.667 18.242-61.284 6.794-19.988 12.518-38.09 14.405-57.01.566-5.594.692-11.188.503-16.531-.755-16.468-5.472-29.479-14.09-38.656-8.807-9.428-22.456-13.953-41.83-13.828-28.118.126-55.544 6.034-79.321 17.034-9.184 4.274-16.103 9.868-22.896 15.274-9.499 7.668-20.507 16.782-29.439 26.902-11.385 12.634-18.808 25.834-22.142 39.222z" stroke="#FFB816" stroke-width="2" stroke-miterlimit="10"/><path d="M395.323 463.837c-7.045 29.102-1.321 62.603 16.229 94.283 15.349 27.782 37.553 50.975 60.827 74.232 12.832 12.759 25.602 24.89 41.139 32.182 19.311 9.051 41.264 10.119 62.022 10.371 2.264 0 4.529.063 6.793.063 13.335 0 27.111-.692 40.006-4.715 16.103-4.965 29.439-15.713 35.729-28.724 6.793-13.954 6.164-28.537 5.535-43.936a420.019 420.019 0 01-.377-12.634c-.126-30.045 9.31-62.856 17.55-88.06 1.132-3.52 2.327-7.04 3.522-10.56 6.857-20.554 13.902-41.736 17.739-63.17 1.321-7.291 2.202-14.519 2.642-21.496 1.447-22.44-2.894-39.976-12.832-52.17-14.594-17.851-40.069-20.491-60.638-20.742-30.571-.44-76.176.691-118.572 16.153-13.273 4.84-22.582 11.691-33.464 19.611l-4.152 3.017c-15.348 11.251-29.879 21.874-42.711 34.696-19.248 19.36-31.766 40.102-36.987 61.599z" stroke="#FFB816" stroke-width="2" stroke-miterlimit="10"/><path d="M387.398 578.799c22.141 36.77 52.775 66.941 87.686 99.689 18.556 17.599 35.603 32.873 56.361 41.798 20.317 8.737 42.145 10.623 65.985 10.623 5.975 0 12.077-.126 18.367-.251 18.682-.503 41.956-1.069 62.777-8.36 22.142-7.794 39.314-23.382 45.982-41.799 6.731-18.605 3.271-38.279-.063-57.261-1.132-6.474-2.327-13.2-3.082-19.737-4.781-40.353 6.542-82.654 16.921-114.962 2.705-8.36 5.535-16.782 8.303-25.016 7.234-21.308 14.719-43.371 19.814-65.559 2.076-9.114 3.712-17.976 4.844-26.399 3.774-28.788 0-50.284-11.637-65.684-17.424-23.005-48.435-26.902-79.446-27.593-51.518-1.257-106.117-1.131-157.886 15.337-17.298 5.468-29.313 13.828-43.214 23.57l-3.271 2.326c-3.586 2.514-7.171 4.966-10.757 7.48-18.178 12.571-35.351 24.45-51.014 39.284-26.985 25.52-44.975 54.496-51.957 83.724-9.687 39.913-.692 85.671 25.287 128.79z" stroke="#FFB816" stroke-width="2" stroke-miterlimit="10"/><path d="M477.474 724.561c20.569 18.856 43.969 40.164 71.646 51.415 22.645 9.24 47.303 11.503 71.269 11.503 12.078 0 23.966-.566 35.289-1.131 26.293-1.258 53.467-2.578 78.754-12.132 28.18-10.622 49.19-31.113 56.172-54.809 6.919-23.508.629-47.959-5.473-71.593-2.201-8.548-4.466-17.348-6.038-25.959-9.436-50.724 3.774-102.517 16.291-141.927 4.215-13.263 8.87-26.714 13.399-39.662 11.071-31.993 22.582-65.118 28.621-99.123 6.227-34.822 2.767-60.718-10.442-79.135-21.324-29.73-61.897-33.376-98.191-34.507-65.293-2.011-132.851-4.086-197.2 14.457-21.765 6.285-36.673 16.405-53.908 28.159-1.447 1.005-2.894 1.948-4.34 2.954-5.347 3.646-10.757 7.228-16.041 10.748-20.946 13.954-42.648 28.348-61.896 45.947-34.848 31.994-57.996 68.576-66.865 105.912-6.354 26.525-6.039 54.998.88 84.666 6.165 26.525 17.802 53.804 33.653 78.946 30.508 48.65 73.156 87.62 114.42 125.271z" stroke="#FFB816" stroke-width="2" stroke-miterlimit="10"/><path d="M137.171 1190.7c2.767-11.95 9.309-23.83 15.977-36.08 6.479-11.88 13.21-24.14 16.355-36.71 11.071-44.63-24.47-87.06-56.298-114.77C75.023 969.822 9.793 907.407 2.307 863.66c-8.995-52.422 30.508-99.312 54.914-122.568 9.687-9.24 20.13-18.228 30.194-26.839 24.406-20.994 49.63-42.679 66.551-70.398 40.761-66.753 57.681-112.826 67.18-182.595 18.933-139.099 119.515-263.615 250.353-309.814 40.194-14.205 82.842-21.497 124.107-28.473 25.538-4.337 51.957-8.863 77.496-14.96 65.607-15.651 110.142-45.633 160.716-88.877 24.155-20.68 60.324-19.988 86.366-15.714 34.156 5.531 66.739 19.485 85.866 30.736 26.35 15.462 48.62 37.525 64.35 63.735 16.48 27.405 24.46 57.387 23.02 86.678-1.83 37.964-18.37 74.483-34.47 109.808-21.77 47.833-42.27 93.026-28.31 140.544 11.64 39.599 43.28 65.496 76.74 92.838 20.26 16.594 41.27 33.753 57.31 54.244 27.48 35.136 39.88 81.9 34.91 131.619-4.78 47.519-25.48 93.906-56.87 127.156-62.46 66.187-159.895 97.426-254.375 81.587-43.089-7.229-56.109-9.429-100.833-8.172-41.202 1.132-90.895 22.754-102.532 67.381-10.945 41.984 7.612 76.304 25.602 109.494 16.543 30.48 33.527 61.98 28.243 99.75" stroke="#FFB816" stroke-width="2" stroke-miterlimit="10"/><path d="M389.348 1190.7c-27.678-3.65-53.782-7.04-76.742-7.04h-1.321a796.57 796.57 0 01-54.348-1.51c-37.175-2.26-59.883-12.51-69.444-31.37-9.813-19.36-3.271-38.34 3.648-58.45 3.523-10.25 7.171-20.74 8.618-31.62 4.403-31.87-10.253-67.694-44.787-109.681-2.201-2.64-4.403-5.343-6.605-7.983l-2.013-2.451c-20.003-24.199-44.975-54.244-49-92.775-4.718-45.318 22.267-87.997 42.962-116.156 4.78-6.537 9.687-12.948 14.405-19.234 20.003-26.336 38.873-51.227 52.397-82.78 1.259-2.955 2.517-5.972 3.712-9.114 11.951-31.554 15.474-65.873 18.871-99.06 2.327-22.503 4.717-45.759 9.687-68.324.817-3.583 1.698-9.365 2.641-15.462 1.321-8.737 2.768-17.851 4.152-22.754 14.216-49.404 39.817-95.037 78.125-139.539 23.085-27.028 53.153-50.724 89.385-70.586 30.508-16.72 65.67-30.988 107.501-43.685 34.848-10.56 71.646-15.839 107.186-20.994 19.94-2.891 40.509-5.845 60.512-9.679 54.726-10.748 92.467-32.37 132.347-61.473.944-.691 1.888-1.383 2.831-2.011 36.924-26.776 106.998-5.783 142.726 16.908 44.916 28.473 73.026 81.838 71.646 136.019-.25 10.937-1.7 22.376-4.28 35.01-3.83 18.92-9.68 37.399-15.35 55.313-13.77 43.496-26.792 84.603-10.94 127.282 12.01 32.433 37.74 55.187 64.92 79.323 18.3 16.154 37.17 32.937 51.32 52.799 23.21 32.559 32.96 74.986 27.56 119.488-5.29 43.181-24.1 83.534-52.91 113.579-10.56 11.063-22.52 20.994-35.47 29.542-37.74 24.891-83.16 38.028-118.449 46.765a831.85 831.85 0 00-16.354 4.337c-18.745 5.154-38.057 10.559-54.852 9.742-7.611-.377-14.027-.754-19.688-1.131-19.689-1.257-31.577-1.949-60.575.691-32.395 2.955-70.263 14.08-98.821 29.165-24.406 12.886-38.181 35.954-39.754 66.69-3.208 61.599-24.029 125.399-52.901 162.539-15.789 20.24-35.855 32.56-58.563 39.6" stroke="#FFB816" stroke-width="2" stroke-miterlimit="10"/><path d="M798.404 1190.7c.88-2.08 1.698-4.09 2.453-6.1 13.776-36.08 4.529-80.33-22.456-107.61-3.649-3.71-7.737-7.29-11.7-10.75-10.694-9.36-21.765-18.98-26.231-32.75-3.837-11.75-1.887-24.95 5.41-37.08 6.793-11.251 17.55-20.554 29.564-25.519 24.344-10.183 51.706-7.103 75.861-4.4 20.884 2.325 42.459 4.714 62.085 13.765 21.953 10.057 37.427 27.724 41.39 47.204 5.598 27.47-10.379 53.36-27.237 77.5-8.24 11.82-16.921 23.7-25.287 35.2-12.014 16.47-24.28 33.31-35.792 50.54m-446.923-77.13c14.153 1.83 27.803 3.59 40.761 3.59 6.919 0 13.587-.51 20.003-1.76 20.569-4.03 36.798-15.34 50.951-35.64 20.444-29.29 37.553-76.12 38.874-82.596 1.132-5.531 1.95-11.691 2.831-18.29 3.9-29.982 8.743-67.256 52.461-81.587 15.159-4.965 49.001-2.514 67.18-1.194 6.227.44 10.316.754 11.762.629 25.476-2.452 48.31-7.794 68.439-12.509 9.749-2.262 18.996-4.462 27.174-5.908 30.57-5.594 50.007-10.12 74.162-17.285 11.259-3.331 21.198-8.8 31.64-14.645 4.906-2.703 10.001-5.532 15.537-8.297 11.385-5.657 23.903-10.812 37.112-16.28 21.89-8.988 44.532-18.354 64.662-31.176 11.58-7.417 22.33-16.091 31.89-25.897 25.79-26.336 43.09-61.849 48.88-99.94 5.91-39.158-1.26-77.249-20.13-107.356-12.39-19.737-29.63-36.519-46.23-52.799-19.88-19.422-40.449-39.473-52.338-64.364-19.122-39.976-13.524-79.386-7.674-121.122 1.51-10.811 3.145-21.999 4.277-33.439 1.258-11.691 1.824-21.308 1.762-30.422-.063-24.388-4.844-48.084-13.776-68.575-9.75-22.439-23.966-40.29-42.145-53.05-14.782-10.371-35.477-19.045-55.417-23.193-16.355-3.458-39.692-5.469-57.808 4.399-.818.44-1.572.88-2.327 1.32-37.93 21.245-68.942 31.931-107.186 36.834-14.091 1.822-28.558 3.205-42.523 4.588-30.319 2.954-61.644 6.034-91.397 13.325-66.992 16.406-143.167 38.091-199.213 88.123-44.284 39.599-76.93 80.895-96.996 122.82-3.397 7.04-6.605 14.519-9.876 22.942-11.951 30.799-16.48 67.129-20.758 102.266-2.893 23.256-5.598 45.255-10.316 65.872-.755 3.268-1.446 6.223-2.201 9.114-9.184 37.085-20.192 69.015-36.924 106.728l-1.761 3.96c-14.154 31.931-30.257 68.072-29.313 105.723.881 33.879 13.587 61.849 27.677 89.82 1.761 3.52 3.586 7.103 5.347 10.623 16.166 31.867 33.464 68.889 33.275 104.658-.063 8.17-.88 16.15-1.698 23.88-2.076 19.8-4.026 38.47 8.114 56.19 10.945 15.91 32.395 24.96 63.721 26.91 16.543 1 33.024.81 49.001-.51 25.664-2.2 49.504.82 70.514 3.52z" stroke="#FFB816" stroke-width="2" stroke-miterlimit="10"/><path d="M355.066 1039.34c10.819 0 21.512-1.01 31.891-2.95 47.429-8.93 69.256-37.088 92.404-66.882 10.882-14.017 22.079-28.473 36.547-41.862 3.082-2.891 6.605-6.285 10.316-9.868 13.461-13.011 30.193-29.165 44.409-37.462 16.481-9.616 45.919-13.702 61.582-13.576 7.611.063 14.593-.063 21.261-.252 17.55-.377 34.156-.754 58.94 2.955 15.034 2.262 25.475 1.948 33.149 1.697 1.007-.063 2.013-.063 2.894-.063 19.689-.44 46.674-7.103 63.846-12.697a413.675 413.675 0 0110.757-3.457c18.556-5.846 33.275-10.497 45.604-21.874 5.661-5.217 9.813-11.188 14.216-17.536 4.277-6.16 8.681-12.571 14.782-18.48 13.084-12.571 31.263-21.182 50.511-30.233 11.637-5.469 23.651-11.126 34.534-17.788a152.187 152.187 0 0028.241-22.251c22.71-22.628 38.62-53.301 44.79-86.3 6.29-33.817 1.82-67.633-12.71-95.226-11.13-21.245-27.8-39.411-43.904-56.947-13.084-14.268-26.608-29.039-37.049-45.319-25.539-39.787-31.578-77.94-32.961-126.528l-.189-8.359c-.126-5.657-.252-11.503-.503-17.348-1.51-36.079-7.423-80.832-40.132-107.169-19.878-16.028-56.55-28.159-83.598-20.805-.629.189-1.258.314-1.887.503-26.922 7.983-52.272 11.754-82.151 12.257-6.039.126-12.203.126-18.116.188-27.237.252-55.48.503-81.962 4.966-66.048 11.125-141.531 26.399-201.981 66.501l-5.535 3.708c-39.755 26.337-71.206 47.205-99.701 86.489-4.529 6.223-8.995 13.074-13.335 20.24-22.645 37.839-25.979 92.334-28.936 140.356-.566 9.239-1.132 17.976-1.761 26.399-.251 3.08-.44 6.097-.629 9.114-1.069 16.405-.629 31.805-.189 46.701.629 21.308 1.258 41.422-2.39 63.107-2.453 14.708-11.134 29.982-20.317 46.136-10.631 18.731-21.702 38.153-23.023 57.575-1.572 22.817 3.523 44.879 8.492 66.25 1.824 7.794 3.523 15.211 4.906 22.565a278.799 278.799 0 002.139 10.874c2.453 11.942 5.41 24.262 8.492 37.273 4.969 20.742 10.064 42.239 13.273 62.541.377 2.451.754 4.903 1.132 7.291 3.648 24.074 6.793 44.879 24.091 62.796 15.978 16.53 40.321 21.37 57.997 22.44 4.026.18 7.925.31 11.763.31z" stroke="#FFB816" stroke-width="2" stroke-miterlimit="10"/><path d="M334.434 949.331c17.235 11.943 38.37 18.228 59.38 18.228 10.567 0 21.072-1.571 31.011-4.777 30.633-9.931 54.411-33.313 77.37-55.878 21.827-21.434 44.409-43.622 72.716-54.119 25.853-9.554 64.664-19.422 103.034-11.753 36.421 7.291 66.111 8.736 99.261 4.965 18.053-2.074 35.791-8.485 50.007-18.165 15.789-10.685 26.734-24.891 31.64-41.045 2.894-9.554 5.221-13.262 8.178-18.039 2.013-3.206 4.277-6.788 7.171-12.885 9.12-19.108 29.249-28.851 48.686-38.342 6.605-3.206 13.399-6.474 19.689-10.12 27.866-16.091 49.504-43.119 60.953-76.243 11.38-33.125 11.13-67.947-.82-98.117-12.893-32.497-37.3-59.147-60.951-84.918-27.614-30.108-56.172-61.221-64.978-101.134-2.705-12.32-3.586-25.771-4.466-38.719-1.825-27.405-3.712-55.69-22.96-74.861-14.342-14.331-34.911-19.485-55.04-23.005-12.014-2.074-24.343-4.903-37.427-7.92-28.935-6.662-58.814-13.513-86.24-12.131-69.444 3.583-138.637 20.617-199.967 49.279-53.845 25.142-82.277 51.541-122.22 97.74-16.795 19.422-30.005 42.93-38.245 68.009-8.24 25.08-11.574 51.982-9.687 77.69 1.51 20.113 1.384 38.844 1.258 56.946-.126 19.988-.252 40.668 1.824 63.044 3.711 40.102-4.214 80.518-11.826 119.677-3.899 19.799-7.862 40.227-10.378 60.467-2.831 23.256-4.278 58.141 4.969 92.711 8.68 32.622 24.846 57.324 48.058 73.415z" stroke="#FFB816" stroke-width="2" stroke-miterlimit="10"/><path d="M808.531 541.526c-2.201 19.862-4.529 40.479-2.893 60.844 1.887 22.879 8.869 42.616 20.191 57.073 12.581 16.091 31.137 25.707 49.127 25.707 1.321 0 2.705-.062 4.026-.188 28.118-2.326 49.253-27.091 62.714-45.507 8.178-11.251 17.298-24.765 22.645-39.725 5.724-16.028 6.29-32.245 1.636-45.633-4.404-12.697-13.462-23.319-21.45-32.747l-17.424-20.428c-11.574-13.577-23.148-27.091-34.66-40.668-2.767-3.205-5.158-7.165-7.737-11.377-7.359-12.068-15.725-25.833-33.527-18.228-8.429 3.583-15.537 11.189-21.827 23.382-14.027 27.091-17.613 59.147-20.821 87.495zM332.106 909.795c14.594 14.583 35.603 22.44 57.745 22.44 9.372 0 18.996-1.383 28.369-4.337 33.401-10.309 57.43-35.891 71.772-55.501 10.442-14.269 16.606-26.651 19.374-38.908 3.585-15.839 1.069-31.365-6.856-42.616-10.191-14.582-27.489-20.554-44.284-26.336-3.522-1.257-7.234-2.514-10.693-3.834-29.376-11.126-55.606-30.674-75.798-56.633l-1.887-2.451c-8.995-11.691-16.795-21.811-32.961-9.366-13.839 10.686-21.387 30.359-24.658 41.108-6.479 21.37-7.045 43.935-7.611 65.746-1.007 41.108.251 83.409 27.488 110.688z" stroke="#FFB816" stroke-width="2" stroke-miterlimit="10"/><path d="M361.419 793.01c-7.8 13.326-2.265 38.091 4.843 48.65 7.737 11.44 20.066 19.234 33.024 20.805 1.636.189 3.334.315 4.97.315 8.617 0 16.732-2.766 22.896-7.794 8.114-6.663 12.266-17.223 10.568-26.902-2.202-12.634-15.978-23.383-24.029-28.662-11.763-7.669-25.539-13.326-35.1-14.331-7.737-.818-13.65 1.885-17.172 7.919zm490.389-248.152c-6.919 14.142-7.045 31.741-.377 46.01 5.85 12.508 16.543 21.119 27.866 22.376 1.006.126 2.012.189 3.082.189 10.127 0 20.632-5.469 28.054-14.834 10.379-12.948 13.587-31.491 8.241-47.205-5.913-17.473-18.62-28.913-33.024-29.856-13.65-.88-26.294 7.857-33.842 23.32z" stroke="#FFB816" stroke-width="2" stroke-miterlimit="10"/></svg>