<svg width="174" height="45" fill="none" xmlns="http://www.w3.org/2000/svg"><path d="M20.087 10.438v11.556c-1.026-.536-1.915-1.349-2.482-2.36-1.271-2.223-1.164-5.242.276-7.694A10.36 10.36 0 0119 10.422h1.087v.016z" fill="#FFB816"/><path d="M20.087 23.94v3.848c-.766-.598-1.455-1.318-2.099-2.039-1.654-1.839-3.325-3.862-4.397-6.222-1.134-2.468-1.44-5.058-.889-7.28a8.646 8.646 0 01.659-1.81h3.402a7.135 7.135 0 00-.399.63c-1.747 2.988-1.854 6.697-.29 9.456.888 1.579 2.343 2.79 4.013 3.418z" fill="#FFB816"/><path d="M20.087 29.918v3.54a56.984 56.984 0 01-1.716-1.624c-3.064-3.02-5.99-6.023-7.982-9.595-2.238-3.985-2.973-8.169-2.084-11.801h3.14a9.62 9.62 0 00-.444 1.38c-.658 2.605-.306 5.594.996 8.429 1.18 2.575 2.958 4.72 4.689 6.667.965 1.104 2.053 2.207 3.401 3.004zM5.21 32.57a63.391 63.391 0 003.769 4.322h-3.77V32.57zm9.821 4.322h-3.585c-2.237-2.269-4.367-4.66-6.236-7.25v-4.475c.138.23.26.46.413.69 2.483 4.076 5.73 7.525 9.408 11.035z" fill="#FFB816"/><path d="M20.087 35.773v1.12h-2.482c-1.9-1.779-3.692-3.51-5.332-5.289-1.946-2.115-3.692-4.276-5.148-6.667a29.426 29.426 0 01-1.915-3.71v-10.79h1.27c-.842 3.955-.015 8.446 2.345 12.66 2.114 3.771 5.117 6.883 8.289 9.994.965.95 1.93 1.87 2.973 2.682z" fill="#FFB816"/><path d="M34.307 5.272V19.65h2.758V7.91h7.186v11.74h2.758V5.272H34.307zm28.361 3.066a4.6 4.6 0 00-1.21-1.61c-.95-.858-2.115-1.333-3.494-1.425-.184-.015-.352-.015-.536-.015h-7.064v14.377h2.758v-4.568h4.306c1.302 0 2.42-.306 3.34-.904a5.71 5.71 0 00.705-.537c1.057-.965 1.578-2.115 1.578-3.479a4.126 4.126 0 00-.383-1.84zm-3.187 3.495c-.475.429-1.149.628-2.053.628h-4.306V7.909h4.306c.889 0 1.578.214 2.053.628.475.414.705.966.705 1.655 0 .675-.23 1.227-.705 1.64zm19.03-4.829c-1.195-1.15-2.62-1.854-4.305-2.1-.46-.06-.95-.107-1.44-.107-2.314 0-4.23.736-5.746 2.207l-.245.246c-1.303 1.38-1.977 3.05-2.038 4.996v.215c0 1.471.337 2.774 1.042 3.924a7.87 7.87 0 001.24 1.548 7.5 7.5 0 003.034 1.808c.629.2 1.318.322 2.038.368.23.015.46.015.69.015 1.501 0 2.834-.306 4.014-.935a8.157 8.157 0 001.594-1.134l.138-.138c.781-.766 1.379-1.624 1.746-2.575a7.774 7.774 0 00.506-2.268c.016-.2.016-.414.016-.629 0-2.16-.767-3.984-2.284-5.44zm-2.053 9.059a5.056 5.056 0 01-.98.75c-.782.46-1.686.69-2.712.69-.138 0-.291 0-.43-.015-1.302-.076-2.39-.552-3.263-1.425-.98-.966-1.471-2.161-1.471-3.602 0-1.44.49-2.636 1.47-3.602.966-.966 2.207-1.44 3.694-1.44.413 0 .796.03 1.164.107a4.73 4.73 0 012.528 1.333c.98.966 1.456 2.161 1.456 3.602v.168c-.03 1.364-.521 2.514-1.456 3.434zM83.43 5.272V19.65h10.787v-2.636h-8.03v-3.357h6.59V11.02h-6.59V7.91h8.03V5.272H83.43zm21.083 6.958l4.796-6.958h-3.125l-3.954 5.748h-2.742V5.272H96.73V19.65h2.758v-5.993h2.865l.337.49 3.739 5.503h3.233l-5.149-7.418zm5.516-6.958V7.91h5.149v11.74h2.758V7.91h5.148V5.272h-13.055zm25.037 0v5.748h-7.309V5.272h-2.758V19.65h2.758v-5.993h7.309v5.993h2.758V5.272h-2.758zm19.766 14.378h2.758V5.271h-2.758V19.65zm-3.019-8.385c-1.057-.965-2.405-1.44-4.045-1.44h-3.83V5.272h-2.758V19.65h6.588c1.624 0 2.973-.475 4.045-1.44 1.058-.966 1.594-2.116 1.594-3.464-.015-1.365-.536-2.514-1.594-3.48zm-2.007 5.135c-.475.414-1.149.628-2.053.628h-3.831v-4.567h3.831c.889 0 1.578.2 2.053.613.475.414.705.966.705 1.655 0 .705-.23 1.257-.705 1.67zM169.082 0c0 .475-.154.858-.445 1.134-.291.276-.705.414-1.241.414-.521 0-.935-.138-1.241-.414-.291-.276-.444-.659-.444-1.134h-2.283c0 1.042.352 1.885 1.057 2.514.705.643 1.67.965 2.896.965s2.191-.322 2.896-.965c.705-.644 1.057-1.472 1.057-2.514h-2.252zm1.562 5.272l-6.956 10.545h-.245l.245-1.915v-8.63h-2.758V19.65h3.356l6.941-10.545h.245l-.245 1.916v8.63h2.758V5.271h-3.341zM46.595 39.467V27.665h-2.773v11.802H37.08V27.665h-2.773V42.12H45.63V45h2.758v-5.533h-1.793zm6.849-9.15h8.075v-2.652H50.686V42.12H61.52v-2.652h-8.075v-3.372h6.635v-2.651h-6.635v-3.127zm20.716-2.652v5.779h-7.34v-5.779h-2.773V42.12h2.773v-6.024h7.34v6.024h2.773V27.665H74.16zm4.689 0v2.652h5.178v11.802h2.774V30.317h5.179v-2.652H78.848zm26.461 1.702a56.627 56.627 0 00-.245-.246c-1.073-.965-2.421-1.456-4.06-1.456h-7.11V42.12h2.773v-4.583h4.337c1.654 0 3.003-.475 4.075-1.44.215-.2.399-.4.567-.599a4.465 4.465 0 001.027-2.896c-.015-1.242-.46-2.315-1.364-3.234zm-2.252 4.889c-.475.414-1.165.628-2.053.628h-4.337v-4.582h4.337c.904 0 1.578.214 2.053.628.475.414.705.965.705 1.655.015.705-.23 1.257-.705 1.67z" fill="#3A362B"/><path d="M2.605 6.07H0v13.61h2.605V6.07z" fill="#FFB816"/><path d="M25.297 5.211H0v2.606h25.297V5.21z" fill="#FFB816"/><path d="M25.297 6.07h-2.605v13.61h2.605V6.07zm0 21.595h-2.605v13.61h2.605v-13.61z" fill="#FFB816"/><path d="M26.6 39.513h-2.605v5.211h2.604v-5.211z" fill="#FFB816"/><path d="M25.297 39.513H0v2.605h25.297v-2.605z" fill="#FFB816"/><path d="M2.605 27.665H0v13.61h2.605v-13.61z" fill="#FFB816"/></svg>