<svg width="217" height="318" fill="none" xmlns="http://www.w3.org/2000/svg"><path d="M163.875 135.133c-8.375-4.303-15.625-10.819-20.25-18.933-10.375-17.825-9.5-42.044 2.25-61.714 2.375-3.934 5.5-8.114 9.125-12.17h8.875v92.817z" fill="#FFB816"/><path d="M163.875 150.746v30.857c-6.25-4.794-11.875-10.572-17.125-16.35-13.5-14.753-27.125-30.98-35.875-49.913-9.25-19.793-11.75-40.569-7.25-58.395 1.125-4.794 3-9.712 5.375-14.506h27.75c-1.25 1.72-2.25 3.32-3.25 5.04-14.25 23.973-15.125 53.724-2.375 75.852 7.25 12.663 19.125 22.375 32.75 27.415z" fill="#FFB816"/><path d="M163.875 198.691v28.399c-4.75-4.18-9.375-8.606-14-13.031-25-24.219-48.875-48.315-65.125-76.959-18.25-31.963-24.25-65.525-17-94.661h25.625c-1.5 3.688-2.75 7.376-3.625 11.064-5.375 20.9-2.5 44.872 8.125 67.615 9.625 20.654 24.125 37.865 38.25 53.478 7.875 8.851 16.75 17.703 27.75 24.095zM42.5 219.959c9.75 12.048 20 23.604 30.75 34.668H42.5v-34.668zm80.125 34.667h-29.25c-18.25-18.195-35.625-37.373-50.875-58.149v-35.898c1.125 1.844 2.125 3.688 3.375 5.532 20.25 32.702 46.75 60.362 76.75 88.515z" fill="#FFB816"/><path d="M163.875 245.653v8.975h-20.25c-15.5-14.261-30.125-28.153-43.5-42.413-15.875-16.966-30.125-34.3-42-53.478-6.125-9.835-11.25-19.793-15.625-29.751V42.439h10.375C46 74.156 52.75 110.177 72 143.985c17.25 30.242 41.75 55.198 67.625 80.154 7.875 7.622 15.75 14.999 24.25 21.514zM21.25 7.402H0V116.57h21.25V7.402z" fill="#FFB816"/><path d="M206.375.517H0v20.9h206.375V.516z" fill="#FFB816"/><path d="M206.375 7.402h-21.25V116.57h21.25V7.402zm0 173.218h-21.25v109.168h21.25V180.62z" fill="#FFB816"/><path d="M217 275.649h-21.25v41.799H217v-41.799z" fill="#FFB816"/><path d="M206.375 275.649H0v20.899h206.375v-20.899z" fill="#FFB816"/><path d="M21.25 180.62H0v109.168h21.25V180.62z" fill="#FFB816"/></svg>