<svg width="22" height="23" fill="none" xmlns="http://www.w3.org/2000/svg"><path d="M13.878.254c2.409 0 3.558.222 4.752.86a6.047 6.047 0 012.51 2.51c.638 1.193.86 2.342.86 4.75v5.755c0 2.408-.222 3.557-.86 4.75a6.047 6.047 0 01-2.51 2.51c-1.194.638-2.343.86-4.752.86H8.122c-2.409 0-3.558-.222-4.752-.86a6.047 6.047 0 01-2.51-2.51C.222 17.686 0 16.538 0 14.13V8.374c0-2.408.222-3.557.86-4.75a6.047 6.047 0 012.51-2.51C4.564.476 5.713.254 8.122.254h5.756zm0 2H8.122c-2.107 0-2.944.161-3.808.623a4.048 4.048 0 00-1.69 1.69C2.162 5.43 2 6.267 2 8.374v5.755c0 2.106.162 2.943.624 3.807.39.731.959 1.3 1.69 1.69.864.462 1.701.624 3.808.624h5.756c2.107 0 2.944-.162 3.808-.624a4.048 4.048 0 001.69-1.69c.462-.864.624-1.7.624-3.807V8.374c0-2.106-.162-2.943-.624-3.807a4.048 4.048 0 00-1.69-1.69c-.864-.462-1.701-.624-3.808-.624zm.415 5.958a1 1 0 011.414 1.414l-5.111 5.11a1 1 0 01-1.414 0l-2.89-2.889a1 1 0 111.415-1.413l2.182 2.18 4.404-4.402z" fill="#FFB816"/></svg>