<svg width="25" height="20" fill="none" xmlns="http://www.w3.org/2000/svg"><path d="M19.581 5.33c0-1.7-1.368-3.076-3.057-3.076a3.066 3.066 0 00-3.058 3.076c0 1.7 1.368 3.076 3.058 3.076A3.066 3.066 0 0019.58 5.33zm1.932 0c0 2.772-2.233 5.018-4.99 5.018-2.756 0-4.989-2.246-4.989-5.018 0-2.773 2.233-5.02 4.99-5.02 2.756 0 4.989 2.247 4.989 5.02zM9.979 16.64c0 .829-.098.724.36.724h12.37c.457 0 .36.105.36-.725 0-2.042-2.981-3.269-6.545-3.269-3.565 0-6.545 1.227-6.545 3.27zm6.545-5.212c4.535 0 8.476 1.62 8.476 5.211 0 1.873-.736 2.668-2.291 2.668h-12.37c-1.556 0-2.292-.794-2.292-2.668 0-3.59 3.941-5.211 8.477-5.211zM9.696 6.316a.975.975 0 010 1.373L4.33 13.086a.962.962 0 01-1.366 0L.283 10.388a.975.975 0 010-1.374.962.962 0 011.365 0l2 2.011 4.682-4.71a.962.962 0 011.366 0z" fill="#FFB816"/></svg>