<svg width="19" height="22" fill="none" xmlns="http://www.w3.org/2000/svg"><path d="M10.802 2.294H4.399c-1.331 0-2.404 1.004-2.404 2.235V17.26c0 1.23 1.073 2.235 2.404 2.235H14.6c1.331 0 2.403-1.004 2.403-2.235v-7.232h-2.519c-2.034 0-3.683-1.611-3.683-3.598V2.294zm1.966 4.542c0 .703.583 1.272 1.302 1.272h2.566l-3.868-4.297v3.025zM0 4.53C0 2.243 1.973.397 4.399.397h6.559a3.02 3.02 0 012.244.979l5.101 5.666c.45.5.697 1.133.697 1.789v8.43c0 2.285-1.973 4.132-4.399 4.132H4.4c-2.427 0-4.4-1.847-4.4-4.133V4.529z" fill="#FFB816"/></svg>