<svg width="22" height="23" fill="none" xmlns="http://www.w3.org/2000/svg"><path d="M13.878.282c2.409 0 3.558.222 4.752.86a6.047 6.047 0 012.51 2.51c.638 1.194.86 2.342.86 4.75v5.756c0 2.408-.222 3.557-.86 4.75a6.048 6.048 0 01-2.51 2.51c-1.194.638-2.343.86-4.752.86H8.122c-2.409 0-3.558-.222-4.752-.86a6.048 6.048 0 01-2.51-2.51C.222 17.714 0 16.566 0 14.158V8.402c0-2.409.222-3.557.86-4.75a6.047 6.047 0 012.51-2.51C4.564.504 5.713.283 8.122.283h5.756zm0 2H8.122c-2.107 0-2.944.162-3.808.624a4.048 4.048 0 00-1.69 1.69C2.162 5.458 2 6.295 2 8.402v5.755c0 2.106.162 2.943.624 3.807.39.73.959 1.298 1.69 1.69.864.461 1.701.623 3.808.623h5.756c2.107 0 2.944-.162 3.808-.624a4.048 4.048 0 001.69-1.69c.462-.863.624-1.7.624-3.806V8.402c0-2.107-.162-2.944-.624-3.808a4.048 4.048 0 00-1.69-1.69c-.864-.461-1.701-.623-3.808-.623zm-2.535 4.8a1 1 0 011.411.098l3 3.443a1 1 0 010 1.314l-3 3.443a1 1 0 01-1.508-1.313l1.556-1.787H7a1 1 0 01-.992-.875L6 11.28a1 1 0 011-1h5.802l-1.556-1.787a1 1 0 010-1.315l.097-.096z" fill="#FFB816"/></svg>