<svg width="22" height="23" fill="none" xmlns="http://www.w3.org/2000/svg"><path d="M17.375 10.394a1.086 1.086 0 012.164-.127l.007.127v5.756c0 2.15-.224 2.93-.644 3.717a4.384 4.384 0 01-1.825 1.823c-.786.421-1.566.645-3.718.645H6.187c-2.151 0-2.932-.224-3.718-.645a4.384 4.384 0 01-1.824-1.823C.224 19.08 0 18.3 0 16.15V8.98c0-2.15.224-2.93.645-3.717a4.385 4.385 0 011.824-1.824c.787-.42 1.567-.644 3.718-.644h5.758v2.171H6.053c-1.642 0-2.143.097-2.653.37a2.03 2.03 0 00-.858.858c-.258.482-.359.955-.37 2.39v7.7c0 1.642.096 2.142.37 2.652.2.377.481.657.858.858.51.273 1.01.37 2.653.37h7.44c1.643 0 2.143-.097 2.653-.37a2.03 2.03 0 00.859-.858c.273-.51.37-1.01.37-2.653v-5.89zm.421-7.77l1.864 1.974-8.266 8.263c-1.152 1.152-3.263 2.111-3.647 1.727-.384-.383.576-2.494 1.727-3.646l.156-.155 8.166-8.164zm-5.851.17a1.086 1.086 0 01.127 2.165l-.127.007V2.795zM21.568.772c.576.576.576 1.344 0 1.92l-.306.306-.452.451-1.92-1.919.758-.758c.576-.575 1.344-.575 1.92 0z" fill="#FFB816"/></svg>